<svg width="24" height="24" viewBox="0 0 24 24" fill="none" xmlns="http://www.w3.org/2000/svg">
<g opacity="0.9">
<path d="M12 22C6.5 22 2 17.5 2 12C2 6.5 6.5 2 12 2C17.5 2 22 6.5 22 12C22 17.5 17.5 22 12 22ZM12 4C7.6 4 4 7.6 4 12C4 16.4 7.6 20 12 20C16.4 20 20 16.4 20 12C20 7.6 16.4 4 12 4ZM12 16.4C11.4 16.4 11 16 11 15.4V13H8.6C8 13 7.6 12.6 7.6 12C7.6 11.4 8 11 8.6 11H11V8.6C11 8 11.4 7.6 12 7.6C12.6 7.6 13 8 13 8.6V11H15.4C16 11 16.4 11.4 16.4 12C16.4 12.6 16 13 15.4 13H13V15.4C13 15.9 12.6 16.4 12 16.4Z" fill="#F1FDFF"/>
</g>
</svg>
