<svg width="24" height="24" viewBox="0 0 24 24" fill="none" xmlns="http://www.w3.org/2000/svg">
<path d="M17.6604 22H6.33962C3.98113 22 2 20.0189 2 17.6604V6.33962C2 3.98113 3.98113 2 6.33962 2H17.6604C20.0189 2 22 3.98113 22 6.33962V17.6604C22 20.0189 20.0189 22 17.6604 22ZM12.9434 20.1132H17.6604C18.9811 20.1132 20.1132 18.9811 20.1132 17.6604V12.9434H12.9434V20.1132ZM3.88679 12.9434V17.6604C3.88679 18.9811 5.01887 20.1132 6.33962 20.1132H11.0566V12.9434H3.88679ZM12.9434 11.0566H20.1132V6.33962C20.1132 5.01887 18.9811 3.88679 17.6604 3.88679H12.9434V11.0566ZM3.88679 11.0566H11.0566V3.88679H6.33962C5.01887 3.88679 3.88679 5.01887 3.88679 6.33962V11.0566Z" fill="#F1FDFF"/>
</svg>
