<svg width="24" height="24" viewBox="0 0 24 24" fill="none" xmlns="http://www.w3.org/2000/svg">
<path d="M3 20C2.4 20 2 19.5733 2 18.9333C2 18.2933 2.4 17.8667 3 17.8667C3.6 17.8667 4 18.2933 4 18.9333C4 19.4667 3.6 20 3 20ZM21 20H8.1C7.5 20 7.1 19.5733 7.1 18.9333C7.1 18.2933 7.5 17.8667 8.1 17.8667H21C21.6 17.8667 22 18.2933 22 18.9333C22 19.5733 21.6 20 21 20ZM3 13.0667C2.4 13.0667 2 12.64 2 12C2 11.36 2.4 10.9333 3 10.9333C3.6 10.9333 4 11.36 4 12C4 12.5333 3.6 13.0667 3 13.0667ZM21 13.0667H8.1C7.5 13.0667 7.1 12.64 7.1 12C7.1 11.36 7.5 10.9333 8.1 10.9333H21C21.6 10.9333 22 11.36 22 12C22 12.64 21.6 13.0667 21 13.0667ZM3 6.13333C2.4 6.13333 2 5.70667 2 5.06667C2 4.42667 2.4 4 3 4C3.6 4 4 4.42667 4 5.06667C4 5.70667 3.6 6.13333 3 6.13333ZM21 6.13333H8.1C7.5 6.13333 7.1 5.70667 7.1 5.06667C7.1 4.42667 7.5 4 8.1 4H21C21.6 4 22 4.42667 22 5.06667C22 5.70667 21.6 6.13333 21 6.13333Z" fill="#F1FDFF"/>
</svg>
