<svg width="24" height="24" viewBox="0 0 24 24" fill="none" xmlns="http://www.w3.org/2000/svg">
<path d="M4 20.1C3.7 20.1 3.5 20 3.3 19.8C3.1 19.6 3 19.2 3 18.9L4 14.5C4.1 14.1 4.3 13.7 4.6 13.4L14.4 3.6C14.8 3.2 15.4 3 16 3C16.6 3 17.1 3.2 17.6 3.6L19.7 5.7C20.6 6.6 20.6 8 19.7 8.8L9.9 18.6C9.6 18.9 9.2 19.1 8.8 19.2L4.4 20.1C4.2 20 4.1 20.1 4 20.1ZM13 7.8L6 14.8C6 14.8 6 14.9 5.9 14.9L5.3 17.8L8.2 17.2C8.2 17.2 8.3 17.2 8.3 17.1L15.3 10.1L13 7.8ZM14.4 6.4L16.8 8.8L18.2 7.4C18.3 7.3 18.3 7.2 18.2 7.1L16.1 5C16 4.9 15.9 4.9 15.8 5L14.4 6.4Z" fill="#F1FDFF"/>
</svg>
