<svg width="24" height="24" viewBox="0 0 24 24" fill="none" xmlns="http://www.w3.org/2000/svg">
<path d="M6.17846 22.2C5.87846 22.2 5.57846 22.1 5.27846 21.9C4.77846 21.5 4.57846 21 4.67846 20.4L5.67846 14.7L1.47846 10.6C1.07846 10.2 0.878461 9.6 1.07846 9C1.27846 8.4 1.77846 8 2.37846 7.9L8.07846 7.1L10.6785 1.9C10.9785 1.4 11.4785 1 12.0785 1C12.6785 1 13.1785 1.3 13.4785 1.9L16.0785 7.1L21.8785 7.9C22.4785 8 22.9785 8.4 23.1785 9C23.3785 9.6 23.1785 10.2 22.7785 10.6L18.4785 14.6L19.4785 20.3C19.5785 20.9 19.3785 21.5 18.8785 21.8C18.3785 22.2 17.7785 22.2 17.2785 21.9L12.0785 19.3L6.97846 22C6.67846 22.1 6.47846 22.2 6.17846 22.2Z" fill="#FF6F95"/>
</svg>
