<svg width="20" height="20" viewBox="0 0 20 20" fill="none" xmlns="http://www.w3.org/2000/svg">
<path d="M5 20C4.90566 20 4.71698 20 4.62264 19.9057C4.24528 19.717 4.0566 19.434 4.0566 19.0566V15.283H2.83019C1.22642 15.283 0 14.0566 0 12.4528V2.83019C0 1.22642 1.22642 0 2.83019 0H17.1698C18.7736 0 20 1.22642 20 2.83019V12.4528C20 14.0566 18.7736 15.283 17.1698 15.283H10.0943L5.66038 19.717C5.4717 19.9057 5.18868 20 5 20ZM2.83019 1.88679C2.26415 1.88679 1.88679 2.26415 1.88679 2.83019V12.4528C1.88679 13.0189 2.26415 13.3962 2.83019 13.3962H5C5.56604 13.3962 5.9434 13.7736 5.9434 14.3396V16.7925L9.0566 13.6792C9.24528 13.4906 9.43396 13.3962 9.71698 13.3962H17.1698C17.7358 13.3962 18.1132 13.0189 18.1132 12.4528V2.83019C18.1132 2.26415 17.7358 1.88679 17.1698 1.88679H2.83019Z" fill="#F1FDFF"/>
</svg>
